<?xml version="1.0" standalone="no" ?>
<!DOCTYPE svg PUBLIC "-//W3C//DTD SVG 1.1//EN" "http://www.w3.org/Graphics/SVG/1.1/DTD/svg11.dtd">
<svg width="710px" height="233px" viewBox="0 0 710 233" style="background-color: #ffffff00" xmlns="http://www.w3.org/2000/svg" xmlns:xlink="http://www.w3.org/1999/xlink" version="1.1" >
<path stroke="none" fill="#000000" transform="matrix(0.1 0 0 0.1 -222 -354)" d="M 3943,3833.08 L 3943,3845.08 L 3655,3845.08 L 3655,3833.08 L 3943,3833.08 Z " />
<path stroke="none" fill="#000000" transform="matrix(0.1 0 0 0.1 -222 -354)" d="M 3943,3884.92 L 3943,3896.92 L 3655,3896.92 L 3655,3884.92 L 3943,3884.92 Z " />
<path stroke="none" fill="#000000" transform="matrix(0.1 0 0 0.1 -222 -354)" d="M 4231,3859 L 4231,3871 L 3943,3871 L 3943,3859 L 4231,3859 Z " />
<text x="0" y="0" stroke="none" fill="#000000" transform="matrix(0.1 0 0 0.1 107.5 40.3)" font-style="normal" font-weight="normal" font-size="200px" font-family="Arial" >
N</text>
<path stroke="none" fill="#000000" transform="matrix(0.1 0 0 0.1 -222 -354)" d="M 3455,3871 L 3455,3859 L 3655,3859 L 3655,3871 L 3455,3871 Z " />
<path stroke="none" fill="#000000" transform="matrix(0.1 0 0 0.1 -222 -354)" d="M 4519,3833.08 L 4519,3845.08 L 4231,3845.08 L 4231,3833.08 L 4519,3833.08 Z " />
<path stroke="none" fill="#000000" transform="matrix(0.1 0 0 0.1 -222 -354)" d="M 4519,3884.92 L 4519,3896.92 L 4231,3896.92 L 4231,3884.92 L 4519,3884.92 Z " />
<path stroke="none" fill="#000000" transform="matrix(0.1 0 0 0.1 -222 -354)" d="M 4807,3859 L 4807,3871 L 4519,3871 L 4519,3859 L 4807,3859 Z " />
<text x="0" y="0" stroke="none" fill="#000000" transform="matrix(0.1 0 0 0.1 280.3 40.3)" font-style="normal" font-weight="normal" font-size="200px" font-family="Arial" >
N</text>
<path stroke="none" fill="#000000" transform="matrix(0.1 0 0 0.1 -222 -354)" d="M 5007,3833.08 L 5007,3845.08 L 4807,3845.08 L 4807,3833.08 L 5007,3833.08 Z " />
<path stroke="none" fill="#000000" transform="matrix(0.1 0 0 0.1 -222 -354)" d="M 5007,3884.92 L 5007,3896.92 L 4807,3896.92 L 4807,3884.92 L 5007,3884.92 Z " />
<path stroke="none" fill="#000000" transform="matrix(0.1 0 0 0.1 -222 -354)" d="M 5294.4,3657.11 L 5302.89,3665.6 L 5181.29,3787.2 L 5172.8,3778.71 L 5294.4,3657.11 Z " />
<path stroke="none" fill="#000000" transform="matrix(0.1 0 0 0.1 -222 -354)" d="M 5302.89,4064.4 L 5294.4,4072.89 L 5179.97,3958.45 L 5188.45,3949.97 L 5302.89,4064.4 Z " />
<path stroke="none" fill="#000000" transform="matrix(0.1 0 0 0.1 -222 -354)" d="M 3228.2,4117.42 L 3217.8,4111.42 L 3298.39,3971.84 L 3308.78,3977.84 L 3228.2,4117.42 Z " />
<path stroke="none" fill="#000000" transform="matrix(0.1 0 0 0.1 -222 -354)" d="M 3217.8,3618.58 L 3228.2,3612.58 L 3314.99,3762.91 L 3304.6,3768.91 L 3217.8,3618.58 Z " />
<path stroke="#000000" stroke-width="10" fill="none" transform="matrix(0.1 0 0 0.1 -222 -354)" d="M 5028.53,3670.33 A 71.7999,71.7999 0 1 0 5172.13,3670.33A 71.7999,71.7999 0 1 0 5028.53,3670.33Z " />
<path stroke="none" fill="#000000" transform="matrix(0.1 0 0 0.1 -222 -354)" d="M 5060.67,3665 L 5139.33,3665 L 5139.33,3675 L 5060.67,3675 Z " />
<path stroke="none" fill="#000000" transform="matrix(0.1 0 0 0.1 -222 -354)" d="M 5105,3630.67 L 5105,3709.33 L 5095,3709.33 L 5095,3630.67 Z " />
<path stroke="none" fill="#000000" transform="matrix(0.1 0 0 0.1 -222 -354)" d="M 3320.83,3745 A 16.6667,16.6667 0 1 0 3354.17,3745A 16.6667,16.6667 0 1 0 3320.83,3745Z " />
<path stroke="none" fill="#000000" transform="matrix(0.1 0 0 0.1 -222 -354)" d="M 3395.83,3745 A 16.6667,16.6667 0 1 0 3429.17,3745A 16.6667,16.6667 0 1 0 3395.83,3745Z " />
<path stroke="none" fill="#000000" transform="matrix(0.1 0 0 0.1 -222 -354)" d="M 5966,3861 L 5599,3861 L 5599,3849 L 5966,3849 Z " />
<path stroke="none" fill="#000000" transform="matrix(0.1 0 0 0.1 -222 -354)" d="M 6070,3855 C 6070,3855 5950,3886 5950,3886 C 5950,3886 5965,3868.56 5965,3855 C 5965,3841 5950,3823 5950,3823 C 5950,3823 6070,3855 6070,3855 C 6070,3855 6070,3855 6070,3855 " />
<path stroke="#000000" stroke-width="1" fill="none" transform="matrix(0.1 0 0 0.1 -222 -354)" d="M 6070,3855 C 6070,3855 5950,3886 5950,3886 C 5950,3886 5965,3868.56 5965,3855 C 5965,3841 5950,3823 5950,3823 C 5950,3823 6070,3855 6070,3855 C 6070,3855 6070,3855 6070,3855 " />
<path stroke="none" fill="#000000" transform="matrix(0.1 0 0 0.1 -222 -354)" d="M 5495,3855 C 5495,3855 5615,3887 5615,3887 C 5615,3887 5600,3869 5600,3855 C 5600,3841.44 5615,3824 5615,3824 C 5615,3824 5495,3855 5495,3855 C 5495,3855 5495,3855 5495,3855 " />
<path stroke="#000000" stroke-width="1" fill="none" transform="matrix(0.1 0 0 0.1 -222 -354)" d="M 5495,3855 C 5495,3855 5615,3887 5615,3887 C 5615,3887 5600,3869 5600,3855 C 5600,3841.44 5615,3824 5615,3824 C 5615,3824 5495,3855 5495,3855 C 5495,3855 5495,3855 5495,3855 " />
<path stroke="none" fill="#000000" transform="matrix(0.1 0 0 0.1 -222 -354)" d="M 7023,3849 L 7023,3861 L 6735,3861 L 6735,3849 L 7023,3849 Z " />
<path stroke="none" fill="#000000" transform="matrix(0.1 0 0 0.1 -222 -354)" d="M 7311,3823.08 L 7311,3835.08 L 7023,3835.08 L 7023,3823.08 L 7311,3823.08 Z " />
<path stroke="none" fill="#000000" transform="matrix(0.1 0 0 0.1 -222 -354)" d="M 7311,3874.92 L 7311,3886.92 L 7023,3886.92 L 7023,3874.92 L 7311,3874.92 Z " />
<text x="0" y="0" stroke="none" fill="#000000" transform="matrix(0.1 0 0 0.1 415.5 39.3)" font-style="normal" font-weight="normal" font-size="200px" font-family="Arial" >
N</text>
<path stroke="none" fill="#000000" transform="matrix(0.1 0 0 0.1 -222 -354)" d="M 6535,3886.92 L 6535,3874.92 L 6735,3874.92 L 6735,3886.92 L 6535,3886.92 Z " />
<path stroke="none" fill="#000000" transform="matrix(0.1 0 0 0.1 -222 -354)" d="M 6535,3835.08 L 6535,3823.08 L 6735,3823.08 L 6735,3835.08 L 6535,3835.08 Z " />
<path stroke="none" fill="#000000" transform="matrix(0.1 0 0 0.1 -222 -354)" d="M 7599,3849 L 7599,3861 L 7311,3861 L 7311,3849 L 7599,3849 Z " />
<path stroke="none" fill="#000000" transform="matrix(0.1 0 0 0.1 -222 -354)" d="M 7887,3823.08 L 7887,3835.08 L 7599,3835.08 L 7599,3823.08 L 7887,3823.08 Z " />
<path stroke="none" fill="#000000" transform="matrix(0.1 0 0 0.1 -222 -354)" d="M 7887,3874.92 L 7887,3886.92 L 7599,3886.92 L 7599,3874.92 L 7887,3874.92 Z " />
<text x="0" y="0" stroke="none" fill="#000000" transform="matrix(0.1 0 0 0.1 588.3 39.3)" font-style="normal" font-weight="normal" font-size="200px" font-family="Arial" >
N</text>
<path stroke="none" fill="#000000" transform="matrix(0.1 0 0 0.1 -222 -354)" d="M 8087,3849 L 8087,3861 L 7887,3861 L 7887,3849 L 8087,3849 Z " />
<path stroke="none" fill="#000000" transform="matrix(0.1 0 0 0.1 -222 -354)" d="M 8374.4,3647.11 L 8382.89,3655.6 L 8261.29,3777.2 L 8252.8,3768.71 L 8374.4,3647.11 Z " />
<path stroke="none" fill="#000000" transform="matrix(0.1 0 0 0.1 -222 -354)" d="M 8427.41,3993.8 L 8421.41,4004.2 L 8274.69,3919.49 L 8280.69,3909.09 L 8427.41,3993.8 Z " />
<path stroke="none" fill="#000000" transform="matrix(0.1 0 0 0.1 -222 -354)" d="M 6308.2,4107.41 L 6297.8,4101.42 L 6378.39,3961.84 L 6388.78,3967.84 L 6308.2,4107.41 Z " />
<path stroke="none" fill="#000000" transform="matrix(0.1 0 0 0.1 -222 -354)" d="M 6297.8,3608.58 L 6308.2,3602.58 L 6394.99,3752.91 L 6384.6,3758.91 L 6297.8,3608.58 Z " />
<path stroke="none" fill="#000000" transform="matrix(0.1 0 0 0.1 -222 -354)" d="M 8110.87,3736.63 A 16.6627,16.6627 0 1 0 8144.2,3736.63A 16.6627,16.6627 0 1 0 8110.87,3736.63Z " />
<path stroke="none" fill="#000000" transform="matrix(0.1 0 0 0.1 -222 -354)" d="M 8185.84,3735 A 16.6627,16.6627 0 1 0 8219.16,3735A 16.6627,16.6627 0 1 0 8185.84,3735Z " />
<path stroke="#000000" stroke-width="10" fill="none" transform="matrix(0.1 0 0 0.1 -222 -354)" d="M 6428.53,3660.33 A 71.7999,71.7999 0 1 0 6572.13,3660.33A 71.7999,71.7999 0 1 0 6428.53,3660.33Z " />
<path stroke="none" fill="#000000" transform="matrix(0.1 0 0 0.1 -222 -354)" d="M 6460.67,3655 L 6539.33,3655 L 6539.33,3665 L 6460.67,3665 Z " />
<path stroke="none" fill="#000000" transform="matrix(0.1 0 0 0.1 -222 -354)" d="M 6505,3620.67 L 6505,3699.33 L 6495,3699.33 L 6495,3620.67 Z " />
<path stroke="#000000" stroke-width="12" fill="none" transform="matrix(0.1 0 0 0.1 -222 -354)" d="M 4640.58,3675 L 4670,3675 " />
<path stroke="#000000" stroke-width="12" fill="none" transform="matrix(0.1 0 0 0.1 -222 -354)" d="M 4670,3675 L 4670,4075 " />
<path stroke="#000000" stroke-width="12" fill="none" transform="matrix(0.1 0 0 0.1 -222 -354)" d="M 4670,4075 L 4640.58,4075 " />
<text x="0" y="0" stroke="none" fill="#000000" transform="matrix(0.1 0 0 0.1 248.75 59.7417)" font-style="normal" font-weight="normal" font-size="150px" font-family="Arial" >
k</text>
<path stroke="#000000" stroke-width="12" fill="none" transform="matrix(0.1 0 0 0.1 -222 -354)" d="M 4144.42,4075 L 4115,4075 " />
<path stroke="#000000" stroke-width="12" fill="none" transform="matrix(0.1 0 0 0.1 -222 -354)" d="M 4115,4075 L 4115,3675 " />
<path stroke="#000000" stroke-width="12" fill="none" transform="matrix(0.1 0 0 0.1 -222 -354)" d="M 4115,3675 L 4144.42,3675 " />
<path stroke="#000000" stroke-width="12" fill="none" transform="matrix(0.1 0 0 0.1 -222 -354)" d="M 7452.74,3665 L 7480,3665 " />
<path stroke="#000000" stroke-width="12" fill="none" transform="matrix(0.1 0 0 0.1 -222 -354)" d="M 7480,3665 L 7480,4035 " />
<path stroke="#000000" stroke-width="12" fill="none" transform="matrix(0.1 0 0 0.1 -222 -354)" d="M 7480,4035 L 7452.74,4035 " />
<text x="0" y="0" stroke="none" fill="#000000" transform="matrix(0.1 0 0 0.1 529.75 55.7417)" font-style="normal" font-weight="normal" font-size="150px" font-family="Arial" >
k</text>
<path stroke="#000000" stroke-width="12" fill="none" transform="matrix(0.1 0 0 0.1 -222 -354)" d="M 6907.26,4035 L 6880,4035 " />
<path stroke="#000000" stroke-width="12" fill="none" transform="matrix(0.1 0 0 0.1 -222 -354)" d="M 6880,4035 L 6880,3665 " />
<path stroke="#000000" stroke-width="12" fill="none" transform="matrix(0.1 0 0 0.1 -222 -354)" d="M 6880,3665 L 6907.26,3665 " />
<text x="0" y="0" stroke="none" fill="#000000" transform="matrix(0.1 0 0 0.1 73.0682 193.025)" font-style="normal" font-weight="normal" font-size="200px" font-family="Arial" >
N</text>
<path stroke="none" fill="#000000" transform="matrix(0.1 0 0 0.1 -222 -354)" d="M 2779.29,5244.54 L 2773.29,5248 L 2767.29,5244.53 L 2767.29,4963.47 L 2773.29,4960 L 2779.29,4963.46 L 2779.29,5244.54 Z " />
<path stroke="none" fill="#000000" transform="matrix(0.1 0 0 0.1 -222 -354)" d="M 2928.79,5331.02 L 2922.78,5341.4 L 2773.27,5254.92 L 2773.29,5248 L 2779.29,5244.54 L 2928.79,5331.02 Z " />
<path stroke="none" fill="#000000" transform="matrix(0.1 0 0 0.1 -222 -354)" d="M 2954.76,5286.12 L 2948.75,5296.51 L 2822.14,5223.28 L 2828.15,5212.89 L 2954.76,5286.12 Z " />
<path stroke="none" fill="#000000" transform="matrix(0.1 0 0 0.1 -222 -354)" d="M 3266.59,5244.54 L 3272.59,5248 L 3272.59,5254.93 L 3122.6,5341.5 L 3116.61,5331.11 L 3266.59,5244.54 Z " />
<path stroke="none" fill="#000000" transform="matrix(0.1 0 0 0.1 -222 -354)" d="M 3266.59,4963.46 L 3278.59,4956.54 L 3278.59,5244.54 L 3272.59,5248 L 3266.59,5244.54 L 3266.59,4963.46 Z " />
<path stroke="none" fill="#000000" transform="matrix(0.1 0 0 0.1 -222 -354)" d="M 3214.75,4989.93 L 3226.75,4989.93 L 3226.75,5218.07 L 3214.75,5218.07 L 3214.75,4989.93 Z " />
<path stroke="none" fill="#000000" transform="matrix(0.1 0 0 0.1 -222 -354)" d="M 3022.69,4822.68 L 3022.68,4808.82 L 3278.59,4956.54 L 3266.59,4963.46 L 3022.69,4822.68 Z " />
<path stroke="none" fill="#000000" transform="matrix(0.1 0 0 0.1 -222 -354)" d="M 3022.68,4808.82 L 3022.69,4822.68 L 2779.29,4963.46 L 2773.29,4960 L 2773.28,4953.07 L 3022.68,4808.82 Z " />
<path stroke="none" fill="#000000" transform="matrix(0.1 0 0 0.1 -222 -354)" d="M 3019.7,4870.45 L 3025.71,4880.83 L 2828.15,4995.11 L 2822.14,4984.72 L 3019.7,4870.45 Z " />
<path stroke="none" fill="#000000" transform="matrix(0.1 0 0 0.1 -222 -354)" d="M 2523.89,4823.18 L 2523.89,4809.33 L 2773.28,4953.07 L 2773.29,4960 L 2767.29,4963.47 L 2523.89,4823.18 Z " />
<path stroke="none" fill="#000000" transform="matrix(0.1 0 0 0.1 -222 -354)" d="M 2281,4963.46 L 2269,4956.54 L 2523.89,4809.33 L 2523.89,4823.18 L 2281,4963.46 Z " />
<path stroke="none" fill="#000000" transform="matrix(0.1 0 0 0.1 -222 -354)" d="M 2329.74,4995.06 L 2323.73,4984.67 L 2520.91,4870.79 L 2526.92,4881.18 L 2329.74,4995.06 Z " />
<path stroke="none" fill="#000000" transform="matrix(0.1 0 0 0.1 -222 -354)" d="M 2281,5244.53 L 2269,5251.47 L 2269,4956.54 L 2281,4963.46 L 2281,5244.53 Z " />
<path stroke="none" fill="#000000" transform="matrix(0.1 0 0 0.1 -222 -354)" d="M 2523.89,5384.32 L 2523.89,5398.16 L 2269,5251.47 L 2281,5244.53 L 2523.89,5384.32 Z " />
<path stroke="none" fill="#000000" transform="matrix(0.1 0 0 0.1 -222 -354)" d="M 2526.91,5326.41 L 2520.92,5336.81 L 2323.7,5223.31 L 2329.68,5212.91 L 2526.91,5326.41 Z " />
<path stroke="none" fill="#000000" transform="matrix(0.1 0 0 0.1 -222 -354)" d="M 2523.89,5398.16 L 2523.89,5384.32 L 2767.29,5244.53 L 2773.29,5248 L 2773.27,5254.92 L 2523.89,5398.16 Z " />
<path stroke="none" fill="#000000" transform="matrix(0.1 0 0 0.1 -222 -354)" d="M 3522,5385.07 L 3522,5398.93 L 3272.59,5254.93 L 3272.59,5248 L 3278.59,5244.54 L 3522,5385.07 Z " />
<path stroke="none" fill="#000000" transform="matrix(0.1 0 0 0.1 -222 -354)" d="M 3771.42,5241.07 L 3771.42,5254.93 L 3522,5398.93 L 3522,5385.07 L 3771.42,5241.07 Z " />
<path stroke="none" fill="#000000" transform="matrix(0.1 0 0 0.1 -222 -354)" d="M 3742.5,5197.91 L 3748.5,5208.3 L 3525,5337.34 L 3519,5326.94 L 3742.5,5197.91 Z " />
<path stroke="none" fill="#000000" transform="matrix(0.1 0 0 0.1 -222 -354)" d="M 4020.83,5385.07 L 4020.83,5398.93 L 3771.42,5254.93 L 3771.42,5241.07 L 4020.83,5385.07 Z " />
<path stroke="none" fill="#000000" transform="matrix(0.1 0 0 0.1 -222 -354)" d="M 4264.25,5244.54 L 4270.25,5248 L 4270.25,5254.93 L 4020.83,5398.93 L 4020.83,5385.07 L 4264.25,5244.54 Z " />
<path stroke="none" fill="#000000" transform="matrix(0.1 0 0 0.1 -222 -354)" d="M 4215.41,5212.87 L 4221.41,5223.27 L 4023.83,5337.34 L 4017.83,5326.94 L 4215.41,5212.87 Z " />
<text x="0" y="0" stroke="none" fill="#000000" transform="matrix(0.1 0 0 0.1 222.766 193)" font-style="normal" font-weight="normal" font-size="200px" font-family="Arial" >
N</text>
<path stroke="none" fill="#000000" transform="matrix(0.1 0 0 0.1 -222 -354)" d="M 4425.74,5330.85 L 4419.74,5341.24 L 4270.25,5254.93 L 4270.25,5248 L 4276.25,5244.54 L 4425.74,5330.85 Z " />
<path stroke="none" fill="#000000" transform="matrix(0.1 0 0 0.1 -222 -354)" d="M 4763.08,5244.54 L 4769.08,5248 L 4769.08,5254.93 L 4619.58,5341.24 L 4613.58,5330.85 L 4763.08,5244.54 Z " />
<path stroke="none" fill="#000000" transform="matrix(0.1 0 0 0.1 -222 -354)" d="M 4763.08,4963.46 L 4769.08,4960 L 4775.08,4963.46 L 4775.08,5244.54 L 4769.08,5248 L 4763.08,5244.54 L 4763.08,4963.46 Z " />
<path stroke="none" fill="#000000" transform="matrix(0.1 0 0 0.1 -222 -354)" d="M 4814.92,4989.93 L 4826.92,4989.93 L 4826.92,5218.07 L 4814.92,5218.07 L 4814.92,4989.93 Z " />
<path stroke="none" fill="#000000" transform="matrix(0.1 0 0 0.1 -222 -354)" d="M 4519.66,4822.93 L 4519.66,4809.07 L 4769.08,4953.07 L 4769.08,4960 L 4763.08,4963.46 L 4519.66,4822.93 Z " />
<path stroke="none" fill="#000000" transform="matrix(0.1 0 0 0.1 -222 -354)" d="M 4276.25,4963.46 L 4264.25,4956.54 L 4519.66,4809.07 L 4519.66,4822.93 L 4276.25,4963.46 Z " />
<path stroke="none" fill="#000000" transform="matrix(0.1 0 0 0.1 -222 -354)" d="M 4325.09,4995.13 L 4319.09,4984.73 L 4516.66,4870.66 L 4522.66,4881.06 L 4325.09,4995.13 Z " />
<path stroke="none" fill="#000000" transform="matrix(0.1 0 0 0.1 -222 -354)" d="M 4276.25,5244.54 L 4270.25,5248 L 4264.25,5244.54 L 4264.25,4956.54 L 4276.25,4963.46 L 4276.25,5244.54 Z " />
<path stroke="none" fill="#000000" transform="matrix(0.1 0 0 0.1 -222 -354)" d="M 5018.49,5385.07 L 5018.49,5398.93 L 4769.08,5254.93 L 4769.08,5248 L 4775.08,5244.54 L 5018.49,5385.07 Z " />
<path stroke="none" fill="#000000" transform="matrix(0.1 0 0 0.1 -222 -354)" d="M 5261.91,5244.54 L 5273.91,5251.46 L 5018.49,5398.93 L 5018.49,5385.07 L 5261.91,5244.54 Z " />
<path stroke="none" fill="#000000" transform="matrix(0.1 0 0 0.1 -222 -354)" d="M 5213.07,5212.87 L 5219.07,5223.27 L 5021.49,5337.34 L 5015.49,5326.94 L 5213.07,5212.87 Z " />
<path stroke="none" fill="#000000" transform="matrix(0.1 0 0 0.1 -222 -354)" d="M 5261.91,4963.46 L 5273.91,4956.54 L 5273.91,5251.46 L 5261.91,5244.54 L 5261.91,4963.46 Z " />
<path stroke="none" fill="#000000" transform="matrix(0.1 0 0 0.1 -222 -354)" d="M 5018.49,4822.93 L 5018.49,4809.07 L 5273.91,4956.54 L 5261.91,4963.46 L 5018.49,4822.93 Z " />
<path stroke="none" fill="#000000" transform="matrix(0.1 0 0 0.1 -222 -354)" d="M 5015.49,4881.06 L 5021.49,4870.66 L 5219.07,4984.73 L 5213.07,4995.13 L 5015.49,4881.06 Z " />
<path stroke="none" fill="#000000" transform="matrix(0.1 0 0 0.1 -222 -354)" d="M 4775.08,4963.46 L 4769.08,4960 L 4769.08,4953.07 L 5018.49,4809.07 L 5018.49,4822.93 L 4775.08,4963.46 Z " />
<path stroke="none" fill="#000000" transform="matrix(0.1 0 0 0.1 -222 -354)" d="M 3028.68,5683.72 L 3016.68,5676.79 L 3016.68,5501.42 L 3028.68,5501.42 L 3028.68,5683.72 Z " />
<path stroke="none" fill="#000000" transform="matrix(0.1 0 0 0.1 -222 -354)" d="M 2776.27,5829.45 L 2770.27,5819.06 L 3016.68,5676.79 L 3028.68,5683.72 L 2776.27,5829.45 Z " />
<path stroke="none" fill="#000000" transform="matrix(0.1 0 0 0.1 -222 -354)" d="M 4525.66,5676.54 L 4513.66,5683.46 L 4513.66,5501.17 L 4525.66,5501.17 L 4525.66,5676.54 Z " />
<path stroke="none" fill="#000000" transform="matrix(0.1 0 0 0.1 -222 -354)" d="M 4772.08,5818.8 L 4766.08,5829.2 L 4513.66,5683.46 L 4525.66,5676.54 L 4772.08,5818.8 Z " />
<path stroke="none" fill="#000000" transform="matrix(0.1 0 0 0.1 -222 -354)" d="M 4470.86,5268.6 A 16.6638,16.6638 0 1 0 4504.19,5268.6A 16.6638,16.6638 0 1 0 4470.86,5268.6Z " />
<path stroke="none" fill="#000000" transform="matrix(0.1 0 0 0.1 -222 -354)" d="M 4545.84,5270 A 16.6638,16.6638 0 1 0 4579.16,5270A 16.6638,16.6638 0 1 0 4545.84,5270Z " />
<path stroke="#000000" stroke-width="10" fill="none" transform="matrix(0.1 0 0 0.1 -222 -354)" d="M 2968.53,5225.33 A 71.7999,71.7999 0 1 0 3112.13,5225.33A 71.7999,71.7999 0 1 0 2968.53,5225.33Z " />
<path stroke="none" fill="#000000" transform="matrix(0.1 0 0 0.1 -222 -354)" d="M 3000.67,5220 L 3079.33,5220 L 3079.33,5230 L 3000.67,5230 Z " />
<path stroke="none" fill="#000000" transform="matrix(0.1 0 0 0.1 -222 -354)" d="M 3045,5185.67 L 3045,5264.33 L 3035,5264.33 L 3035,5185.67 Z " />
<path stroke="none" fill="#000000" transform="matrix(0.1 0 0 0.1 -222 -354)" d="M 5966,5141 L 5599,5141 L 5599,5129 L 5966,5129 Z " />
<path stroke="none" fill="#000000" transform="matrix(0.1 0 0 0.1 -222 -354)" d="M 6070,5135 C 6070,5135 5950,5166 5950,5166 C 5950,5166 5965,5148.56 5965,5135 C 5965,5121 5950,5103 5950,5103 C 5950,5103 6070,5135 6070,5135 C 6070,5135 6070,5135 6070,5135 " />
<path stroke="#000000" stroke-width="1" fill="none" transform="matrix(0.1 0 0 0.1 -222 -354)" d="M 6070,5135 C 6070,5135 5950,5166 5950,5166 C 5950,5166 5965,5148.56 5965,5135 C 5965,5121 5950,5103 5950,5103 C 5950,5103 6070,5135 6070,5135 C 6070,5135 6070,5135 6070,5135 " />
<path stroke="none" fill="#000000" transform="matrix(0.1 0 0 0.1 -222 -354)" d="M 5495,5135 C 5495,5135 5615,5167 5615,5167 C 5615,5167 5600,5149 5600,5135 C 5600,5121.44 5615,5104 5615,5104 C 5615,5104 5495,5135 5495,5135 C 5495,5135 5495,5135 5495,5135 " />
<path stroke="#000000" stroke-width="1" fill="none" transform="matrix(0.1 0 0 0.1 -222 -354)" d="M 5495,5135 C 5495,5135 5615,5167 5615,5167 C 5615,5167 5600,5149 5600,5135 C 5600,5121.44 5615,5104 5615,5104 C 5615,5104 5495,5135 5495,5135 C 5495,5135 5495,5135 5495,5135 " />
<text x="0" y="0" stroke="none" fill="#000000" transform="matrix(0.1 0 0 0.1 473.068 193.025)" font-style="normal" font-weight="normal" font-size="200px" font-family="Arial" >
N</text>
<path stroke="none" fill="#000000" transform="matrix(0.1 0 0 0.1 -222 -354)" d="M 6779.29,5244.54 L 6773.29,5248 L 6767.29,5244.53 L 6767.29,4963.47 L 6773.29,4960 L 6779.29,4963.46 L 6779.29,5244.54 Z " />
<path stroke="none" fill="#000000" transform="matrix(0.1 0 0 0.1 -222 -354)" d="M 6727.45,5217.99 L 6715.45,5217.99 L 6715.45,4989.95 L 6727.45,4989.95 L 6727.45,5217.99 Z " />
<path stroke="none" fill="#000000" transform="matrix(0.1 0 0 0.1 -222 -354)" d="M 6928.79,5331.02 L 6922.78,5341.4 L 6773.27,5254.92 L 6773.29,5248 L 6779.29,5244.54 L 6928.79,5331.02 Z " />
<path stroke="none" fill="#000000" transform="matrix(0.1 0 0 0.1 -222 -354)" d="M 7266.59,5244.54 L 7272.59,5248 L 7272.59,5254.93 L 7122.6,5341.5 L 7116.61,5331.11 L 7266.59,5244.54 Z " />
<path stroke="none" fill="#000000" transform="matrix(0.1 0 0 0.1 -222 -354)" d="M 7266.59,4963.46 L 7278.59,4956.54 L 7278.59,5244.54 L 7272.59,5248 L 7266.59,5244.54 L 7266.59,4963.46 Z " />
<path stroke="none" fill="#000000" transform="matrix(0.1 0 0 0.1 -222 -354)" d="M 7022.68,4822.68 L 7022.68,4808.82 L 7278.59,4956.54 L 7266.59,4963.46 L 7022.68,4822.68 Z " />
<path stroke="none" fill="#000000" transform="matrix(0.1 0 0 0.1 -222 -354)" d="M 7019.71,4880.93 L 7025.71,4870.54 L 7223.65,4984.79 L 7217.65,4995.19 L 7019.71,4880.93 Z " />
<path stroke="none" fill="#000000" transform="matrix(0.1 0 0 0.1 -222 -354)" d="M 7022.68,4808.82 L 7022.68,4822.68 L 6779.29,4963.46 L 6773.29,4960 L 6773.28,4953.07 L 7022.68,4808.82 Z " />
<path stroke="none" fill="#000000" transform="matrix(0.1 0 0 0.1 -222 -354)" d="M 6523.89,4823.18 L 6523.89,4809.33 L 6773.28,4953.07 L 6773.29,4960 L 6767.29,4963.47 L 6523.89,4823.18 Z " />
<path stroke="none" fill="#000000" transform="matrix(0.1 0 0 0.1 -222 -354)" d="M 6281,4963.46 L 6269,4956.54 L 6523.89,4809.33 L 6523.89,4823.18 L 6281,4963.46 Z " />
<path stroke="none" fill="#000000" transform="matrix(0.1 0 0 0.1 -222 -354)" d="M 6329.74,4995.06 L 6323.73,4984.67 L 6520.91,4870.79 L 6526.92,4881.18 L 6329.74,4995.06 Z " />
<path stroke="none" fill="#000000" transform="matrix(0.1 0 0 0.1 -222 -354)" d="M 6281,5244.53 L 6269,5251.47 L 6269,4956.54 L 6281,4963.46 L 6281,5244.53 Z " />
<path stroke="none" fill="#000000" transform="matrix(0.1 0 0 0.1 -222 -354)" d="M 6523.89,5384.32 L 6523.89,5398.16 L 6269,5251.47 L 6281,5244.53 L 6523.89,5384.32 Z " />
<path stroke="none" fill="#000000" transform="matrix(0.1 0 0 0.1 -222 -354)" d="M 6526.91,5326.41 L 6520.92,5336.81 L 6323.7,5223.31 L 6329.68,5212.91 L 6526.91,5326.41 Z " />
<path stroke="none" fill="#000000" transform="matrix(0.1 0 0 0.1 -222 -354)" d="M 6523.89,5398.16 L 6523.89,5384.32 L 6767.29,5244.53 L 6773.29,5248 L 6773.27,5254.92 L 6523.89,5398.16 Z " />
<path stroke="none" fill="#000000" transform="matrix(0.1 0 0 0.1 -222 -354)" d="M 7522,5385.07 L 7522,5398.93 L 7272.59,5254.93 L 7272.59,5248 L 7278.59,5244.54 L 7522,5385.07 Z " />
<path stroke="none" fill="#000000" transform="matrix(0.1 0 0 0.1 -222 -354)" d="M 7525,5326.94 L 7519,5337.34 L 7321.43,5223.27 L 7327.43,5212.87 L 7525,5326.94 Z " />
<path stroke="none" fill="#000000" transform="matrix(0.1 0 0 0.1 -222 -354)" d="M 7771.42,5241.07 L 7771.42,5254.93 L 7522,5398.93 L 7522,5385.07 L 7771.42,5241.07 Z " />
<path stroke="none" fill="#000000" transform="matrix(0.1 0 0 0.1 -222 -354)" d="M 8020.83,5385.07 L 8020.83,5398.93 L 7771.42,5254.93 L 7771.42,5241.07 L 8020.83,5385.07 Z " />
<path stroke="none" fill="#000000" transform="matrix(0.1 0 0 0.1 -222 -354)" d="M 8023.83,5326.94 L 8017.83,5337.34 L 7794.34,5208.3 L 7800.34,5197.91 L 8023.83,5326.94 Z " />
<path stroke="none" fill="#000000" transform="matrix(0.1 0 0 0.1 -222 -354)" d="M 8264.25,5244.54 L 8270.25,5248 L 8270.25,5254.93 L 8020.83,5398.93 L 8020.83,5385.07 L 8264.25,5244.54 Z " />
<text x="0" y="0" stroke="none" fill="#000000" transform="matrix(0.1 0 0 0.1 622.766 193)" font-style="normal" font-weight="normal" font-size="200px" font-family="Arial" >
N</text>
<path stroke="none" fill="#000000" transform="matrix(0.1 0 0 0.1 -222 -354)" d="M 8425.74,5330.85 L 8419.74,5341.24 L 8270.25,5254.93 L 8270.25,5248 L 8276.25,5244.54 L 8425.74,5330.85 Z " />
<path stroke="none" fill="#000000" transform="matrix(0.1 0 0 0.1 -222 -354)" d="M 8763.08,5244.54 L 8769.08,5248 L 8769.08,5254.93 L 8619.58,5341.24 L 8613.58,5330.85 L 8763.08,5244.54 Z " />
<path stroke="none" fill="#000000" transform="matrix(0.1 0 0 0.1 -222 -354)" d="M 8714.24,5212.87 L 8720.24,5223.27 L 8593.66,5296.34 L 8587.66,5285.95 L 8714.24,5212.87 Z " />
<path stroke="none" fill="#000000" transform="matrix(0.1 0 0 0.1 -222 -354)" d="M 8763.08,4963.46 L 8769.08,4960 L 8775.08,4963.46 L 8775.08,5244.54 L 8769.08,5248 L 8763.08,5244.54 L 8763.08,4963.46 Z " />
<path stroke="none" fill="#000000" transform="matrix(0.1 0 0 0.1 -222 -354)" d="M 8519.66,4822.93 L 8519.66,4809.07 L 8769.08,4953.07 L 8769.08,4960 L 8763.08,4963.46 L 8519.66,4822.93 Z " />
<path stroke="none" fill="#000000" transform="matrix(0.1 0 0 0.1 -222 -354)" d="M 8516.66,4881.06 L 8522.66,4870.66 L 8720.24,4984.73 L 8714.24,4995.13 L 8516.66,4881.06 Z " />
<path stroke="none" fill="#000000" transform="matrix(0.1 0 0 0.1 -222 -354)" d="M 8276.25,4963.46 L 8264.25,4956.54 L 8519.66,4809.07 L 8519.66,4822.93 L 8276.25,4963.46 Z " />
<path stroke="none" fill="#000000" transform="matrix(0.1 0 0 0.1 -222 -354)" d="M 8276.25,5244.54 L 8270.25,5248 L 8264.25,5244.54 L 8264.25,4956.54 L 8276.25,4963.46 L 8276.25,5244.54 Z " />
<path stroke="none" fill="#000000" transform="matrix(0.1 0 0 0.1 -222 -354)" d="M 8328.09,5218.07 L 8316.09,5218.07 L 8316.09,4989.93 L 8328.09,4989.93 L 8328.09,5218.07 Z " />
<path stroke="none" fill="#000000" transform="matrix(0.1 0 0 0.1 -222 -354)" d="M 9018.49,5385.07 L 9018.49,5398.93 L 8769.08,5254.93 L 8769.08,5248 L 8775.08,5244.54 L 9018.49,5385.07 Z " />
<path stroke="none" fill="#000000" transform="matrix(0.1 0 0 0.1 -222 -354)" d="M 9261.91,5244.54 L 9273.91,5251.46 L 9018.49,5398.93 L 9018.49,5385.07 L 9261.91,5244.54 Z " />
<path stroke="none" fill="#000000" transform="matrix(0.1 0 0 0.1 -222 -354)" d="M 9213.07,5212.87 L 9219.07,5223.27 L 9021.49,5337.34 L 9015.49,5326.94 L 9213.07,5212.87 Z " />
<path stroke="none" fill="#000000" transform="matrix(0.1 0 0 0.1 -222 -354)" d="M 9261.91,4963.46 L 9273.91,4956.54 L 9273.91,5251.46 L 9261.91,5244.54 L 9261.91,4963.46 Z " />
<path stroke="none" fill="#000000" transform="matrix(0.1 0 0 0.1 -222 -354)" d="M 9018.49,4822.93 L 9018.49,4809.07 L 9273.91,4956.54 L 9261.91,4963.46 L 9018.49,4822.93 Z " />
<path stroke="none" fill="#000000" transform="matrix(0.1 0 0 0.1 -222 -354)" d="M 9015.49,4881.06 L 9021.49,4870.66 L 9219.07,4984.73 L 9213.07,4995.13 L 9015.49,4881.06 Z " />
<path stroke="none" fill="#000000" transform="matrix(0.1 0 0 0.1 -222 -354)" d="M 8775.08,4963.46 L 8769.08,4960 L 8769.08,4953.07 L 9018.49,4809.07 L 9018.49,4822.93 L 8775.08,4963.46 Z " />
<path stroke="none" fill="#000000" transform="matrix(0.1 0 0 0.1 -222 -354)" d="M 7028.68,5683.72 L 7016.68,5676.79 L 7016.68,5501.42 L 7028.68,5501.42 L 7028.68,5683.72 Z " />
<path stroke="none" fill="#000000" transform="matrix(0.1 0 0 0.1 -222 -354)" d="M 6776.27,5829.45 L 6770.27,5819.06 L 7016.68,5676.79 L 7028.68,5683.72 L 6776.27,5829.45 Z " />
<path stroke="none" fill="#000000" transform="matrix(0.1 0 0 0.1 -222 -354)" d="M 8525.66,5676.54 L 8513.66,5683.46 L 8513.66,5501.17 L 8525.66,5501.17 L 8525.66,5676.54 Z " />
<path stroke="none" fill="#000000" transform="matrix(0.1 0 0 0.1 -222 -354)" d="M 8772.08,5818.8 L 8766.08,5829.2 L 8513.66,5683.46 L 8525.66,5676.54 L 8772.08,5818.8 Z " />
<path stroke="#000000" stroke-width="10" fill="none" transform="matrix(0.1 0 0 0.1 -222 -354)" d="M 8443.53,5215.33 A 71.7999,71.7999 0 1 0 8587.13,5215.33A 71.7999,71.7999 0 1 0 8443.53,5215.33Z " />
<path stroke="none" fill="#000000" transform="matrix(0.1 0 0 0.1 -222 -354)" d="M 8475.67,5210 L 8554.33,5210 L 8554.33,5220 L 8475.67,5220 Z " />
<path stroke="none" fill="#000000" transform="matrix(0.1 0 0 0.1 -222 -354)" d="M 8520,5175.67 L 8520,5254.33 L 8510,5254.33 L 8510,5175.67 Z " />
<path stroke="none" fill="#000000" transform="matrix(0.1 0 0 0.1 -222 -354)" d="M 6960.85,5265.97 A 16.6653,16.6653 0 1 0 6994.18,5265.97A 16.6653,16.6653 0 1 0 6960.85,5265.97Z " />
<path stroke="none" fill="#000000" transform="matrix(0.1 0 0 0.1 -222 -354)" d="M 7035.83,5265 A 16.6653,16.6653 0 1 0 7069.17,5265A 16.6653,16.6653 0 1 0 7035.83,5265Z " />
<path stroke="#000000" stroke-width="12" fill="none" transform="matrix(0.1 0 0 0.1 -222 -354)" d="M 3844.13,5130 L 3875,5130 " />
<path stroke="#000000" stroke-width="12" fill="none" transform="matrix(0.1 0 0 0.1 -222 -354)" d="M 3875,5130 L 3875,5550 " />
<path stroke="#000000" stroke-width="12" fill="none" transform="matrix(0.1 0 0 0.1 -222 -354)" d="M 3875,5550 L 3844.13,5550 " />
<text x="0" y="0" stroke="none" fill="#000000" transform="matrix(0.1 0 0 0.1 169.25 207.242)" font-style="normal" font-weight="normal" font-size="150px" font-family="Arial" >
k</text>
<path stroke="#000000" stroke-width="12" fill="none" transform="matrix(0.1 0 0 0.1 -222 -354)" d="M 3465.87,5550 L 3435,5550 " />
<path stroke="#000000" stroke-width="12" fill="none" transform="matrix(0.1 0 0 0.1 -222 -354)" d="M 3435,5550 L 3435,5130 " />
<path stroke="#000000" stroke-width="12" fill="none" transform="matrix(0.1 0 0 0.1 -222 -354)" d="M 3435,5130 L 3465.87,5130 " />
<path stroke="#000000" stroke-width="12" fill="none" transform="matrix(0.1 0 0 0.1 -222 -354)" d="M 8104.81,5105 L 8140,5105 " />
<path stroke="#000000" stroke-width="12" fill="none" transform="matrix(0.1 0 0 0.1 -222 -354)" d="M 8140,5105 L 8140,5585 " />
<path stroke="#000000" stroke-width="12" fill="none" transform="matrix(0.1 0 0 0.1 -222 -354)" d="M 8140,5585 L 8104.81,5585 " />
<text x="0" y="0" stroke="none" fill="#000000" transform="matrix(0.1 0 0 0.1 595.75 210.742)" font-style="normal" font-weight="normal" font-size="150px" font-family="Arial" >
k</text>
<path stroke="#000000" stroke-width="12" fill="none" transform="matrix(0.1 0 0 0.1 -222 -354)" d="M 7695.19,5585 L 7660,5585 " />
<path stroke="#000000" stroke-width="12" fill="none" transform="matrix(0.1 0 0 0.1 -222 -354)" d="M 7660,5585 L 7660,5105 " />
<path stroke="#000000" stroke-width="12" fill="none" transform="matrix(0.1 0 0 0.1 -222 -354)" d="M 7660,5105 L 7695.19,5105 " />
</svg>
